<svg width="441" height="455" viewBox="0 0 441 455" fill="none" xmlns="http://www.w3.org/2000/svg">
<path d="M416.5 5L440 29L436.5 454H0.5L3.5 1H59V5H109V1L341 5V13H350L356 5H395.5H416.5Z" fill="#B6B091" stroke="black"/>
<g filter="url(#filter0_ii_1_11)">
<path d="M59.0706 147V5.5L340 6L341 151.5C341 151.5 340.524 157 332.428 157H67.6427C57.6419 157 59.0706 147 59.0706 147Z" fill="#C5C1AF"/>
</g>
<path d="M109 148V1H341L340.5 151C340.5 151 340.5 158.5 330 158.5C319.5 158.5 127.5 155.5 117.5 155.5C107.5 155.5 109 148 109 148Z" fill="#848484" stroke="black"/>
<path d="M246.5 147V27H302.5V147H246.5Z" fill="#C5C1AF" stroke="black"/>
<g filter="url(#filter1_ii_1_11)">
<rect x="47.043" y="181.567" width="335.262" height="244" rx="5" transform="rotate(0.142821 47.043 181.567)" fill="#D9D9D9" fill-opacity="0.39"/>
</g>
<defs>
<filter id="filter0_ii_1_11" x="56" y="1.5" width="288" height="155.5" filterUnits="userSpaceOnUse" color-interpolation-filters="sRGB">
<feFlood flood-opacity="0" result="BackgroundImageFix"/>
<feBlend mode="normal" in="SourceGraphic" in2="BackgroundImageFix" result="shape"/>
<feColorMatrix in="SourceAlpha" type="matrix" values="0 0 0 0 0 0 0 0 0 0 0 0 0 0 0 0 0 0 127 0" result="hardAlpha"/>
<feOffset dx="3" dy="-4"/>
<feGaussianBlur stdDeviation="2"/>
<feComposite in2="hardAlpha" operator="arithmetic" k2="-1" k3="1"/>
<feColorMatrix type="matrix" values="0 0 0 0 0 0 0 0 0 0 0 0 0 0 0 0 0 0 0.25 0"/>
<feBlend mode="normal" in2="shape" result="effect1_innerShadow_1_11"/>
<feColorMatrix in="SourceAlpha" type="matrix" values="0 0 0 0 0 0 0 0 0 0 0 0 0 0 0 0 0 0 127 0" result="hardAlpha"/>
<feOffset dx="-3"/>
<feGaussianBlur stdDeviation="2"/>
<feComposite in2="hardAlpha" operator="arithmetic" k2="-1" k3="1"/>
<feColorMatrix type="matrix" values="0 0 0 0 0 0 0 0 0 0 0 0 0 0 0 0 0 0 0.25 0"/>
<feBlend mode="normal" in2="effect1_innerShadow_1_11" result="effect2_innerShadow_1_11"/>
</filter>
<filter id="filter1_ii_1_11" x="44.4473" y="177.58" width="339.844" height="251.81" filterUnits="userSpaceOnUse" color-interpolation-filters="sRGB">
<feFlood flood-opacity="0" result="BackgroundImageFix"/>
<feBlend mode="normal" in="SourceGraphic" in2="BackgroundImageFix" result="shape"/>
<feColorMatrix in="SourceAlpha" type="matrix" values="0 0 0 0 0 0 0 0 0 0 0 0 0 0 0 0 0 0 127 0" result="hardAlpha"/>
<feOffset dx="2" dy="-4"/>
<feGaussianBlur stdDeviation="2"/>
<feComposite in2="hardAlpha" operator="arithmetic" k2="-1" k3="1"/>
<feColorMatrix type="matrix" values="0 0 0 0 0 0 0 0 0 0 0 0 0 0 0 0 0 0 0.25 0"/>
<feBlend mode="normal" in2="shape" result="effect1_innerShadow_1_11"/>
<feColorMatrix in="SourceAlpha" type="matrix" values="0 0 0 0 0 0 0 0 0 0 0 0 0 0 0 0 0 0 127 0" result="hardAlpha"/>
<feOffset dx="-2" dy="3"/>
<feGaussianBlur stdDeviation="2"/>
<feComposite in2="hardAlpha" operator="arithmetic" k2="-1" k3="1"/>
<feColorMatrix type="matrix" values="0 0 0 0 0 0 0 0 0 0 0 0 0 0 0 0 0 0 0.25 0"/>
<feBlend mode="normal" in2="effect1_innerShadow_1_11" result="effect2_innerShadow_1_11"/>
</filter>
</defs>
</svg>
